<svg width="155" height="219" viewBox="0 0 155 219" fill="none" xmlns="http://www.w3.org/2000/svg">
<path d="M19.7202 62.7089H82.4495" stroke="#F16B2D" stroke-width="4.8881" stroke-miterlimit="22.9256"/>
<path fill-rule="evenodd" clip-rule="evenodd" d="M71.0655 48.9499C71.9773 49.0019 72.5764 49.21 73.2798 48.5597C73.3059 45.2825 72.9672 43.1237 71.5605 40.4708C70.8311 39.1443 68.5907 36.4133 66.168 36.8554C71.0655 38.7541 71.3 44.7103 71.0655 48.9499Z" fill="#F16B2D" stroke="#F16B2D" stroke-width="1.9553" stroke-miterlimit="22.9256"/>
<path fill-rule="evenodd" clip-rule="evenodd" d="M33.1882 34.7227C34.8294 33.9684 40.3781 27.7001 43.1134 25.7494C58.1706 14.9815 74.0614 20.7816 89.1185 28.0122C83.7521 21.1197 64.9697 16.3339 56.9723 17.5824C46.3697 19.169 38.6588 25.4893 33.1882 34.7227Z" fill="#F16B2D" stroke="#F16B2D" stroke-width="1.9553" stroke-miterlimit="22.9256"/>
<path fill-rule="evenodd" clip-rule="evenodd" d="M32.2764 36.6994C26.6495 38.338 19.2512 42.2135 16.9588 46.6871C16.8285 48.5078 16.9327 48.8199 17.8445 49.8342C24.1748 37.0376 43.6344 36.1793 47.4378 34.1505C41.9932 34.8268 37.1479 35.8151 32.2764 36.6994Z" fill="#F16B2D" stroke="#F16B2D" stroke-width="1.9553" stroke-miterlimit="22.9256"/>
<path fill-rule="evenodd" clip-rule="evenodd" d="M122.984 33.5262C121.213 33.3182 119.988 33.1621 117.774 34.3325C120.04 34.6186 122.176 34.5406 124.052 35.3729C126.266 36.3613 126.006 37.2716 127.256 39.0663L127.882 36.9595C130.304 37.0375 131.815 40.7309 133.508 42.2394C133.717 36.7774 127.699 34.0985 122.984 33.5262Z" fill="#F16B2D" stroke="#F16B2D" stroke-width="1.9553" stroke-miterlimit="22.9256"/>
<path fill-rule="evenodd" clip-rule="evenodd" d="M136.4 48.1956C134.16 41.3812 111.704 33.1101 104.566 31.7316C102.013 31.3675 99.0957 30.4572 96.5688 31.3675C97.1941 31.9657 105.608 33.9424 107.171 34.5146C116.81 38.0779 128.637 44.6844 136.4 48.1956Z" fill="#F16B2D" stroke="#F16B2D" stroke-width="1.9553" stroke-miterlimit="22.9256"/>
<path fill-rule="evenodd" clip-rule="evenodd" d="M63.9799 34.8007C60.932 35.2949 55.0707 42.3175 53.8723 45.6467C53.3253 47.0772 53.3513 46.8171 54.1068 46.1929C58.4051 40.7569 64.7875 30.4831 72.3681 38.8582C73.3841 40.0026 74.1917 41.147 74.9992 42.6036C76.3018 44.9184 75.6505 45.4646 78.3076 45.5686C77.7866 42.9417 75.2076 39.0663 73.2278 37.1936C70.727 34.9047 68.5908 33.5262 63.9799 34.8007Z" fill="#F16B2D" stroke="#F16B2D" stroke-width="1.9553" stroke-miterlimit="22.9256"/>
<path d="M64.4748 41.9274C64.6572 41.0691 64.7875 40.887 65.2564 39.8726C65.2564 40.913 65.3085 41.1471 65.1261 42.0574C64.9438 42.9677 64.6832 43.4359 64.3446 44.1122C64.2925 43.3839 64.2925 42.7857 64.4748 41.9274ZM65.8295 43.67C66.2463 43.3579 66.4807 43.0718 66.7412 42.7077C66.3244 42.8897 66.0379 42.9938 65.595 43.3579C65.1522 43.696 65.1001 43.8261 64.6832 44.3202C65.2824 44.0341 65.4127 44.0081 65.8295 43.67ZM62.5992 44.8404C62.0782 44.8664 61.948 44.8144 61.2967 44.6844C61.8959 44.5283 62.0261 44.4763 62.5992 44.4503C63.1723 44.4243 63.4589 44.5023 63.9017 44.6063C63.4849 44.7364 63.1202 44.8144 62.5992 44.8404ZM63.7194 46.1929C63.4849 46.6871 63.3547 46.7651 62.9379 47.3113C63.0942 46.6871 63.0942 46.531 63.3547 46.0109C63.6152 45.4907 63.8496 45.2566 64.1362 44.8925C64.058 45.3346 63.9538 45.6987 63.7194 46.1929ZM65.1782 46.0369C64.8396 45.5947 64.8135 45.4647 64.5269 44.8404C65.0219 45.2566 65.1522 45.3346 65.5169 45.8028C65.8816 46.271 65.9858 46.5831 66.1681 46.9992C65.8034 46.7131 65.4908 46.453 65.1782 46.0369ZM62.8076 43.0718C62.4169 42.5516 62.3648 42.3695 62.0261 41.5892C62.6253 42.1094 62.7816 42.1875 63.2244 42.7597C63.6673 43.3319 63.7975 43.696 64.0059 44.2422C63.5631 43.9041 63.1984 43.592 62.8076 43.0718Z" fill="white" stroke="white" stroke-miterlimit="10"/>
<path fill-rule="evenodd" clip-rule="evenodd" d="M52.4916 28.6885C54.3933 32.1478 55.1227 31.4195 62.5991 29.989C66.3764 29.2607 70.5185 28.3244 74.5563 28.3244C79.3235 28.3244 95.5269 30.6132 94.8235 37.6098C88.5453 40.939 83.3092 34.3586 79.7924 32.4599C82.3193 37.9999 92.3487 43.774 98.0537 40.0546C98.7311 36.5434 95.6311 32.928 92.479 31.0554C80.6 24.0848 70.3361 27.9082 59.2907 28.8185C57.363 28.8185 56.3731 29.1307 55.1227 27.7522C53.6378 26.3216 53.5857 25.5934 52.5958 22.4982C51.684 25.2292 51.9966 27.6481 52.4916 28.6885Z" fill="#F16B2D" stroke="#F16B2D" stroke-width="1.9553" stroke-miterlimit="22.9256"/>
<path d="M24.1227 61.3304L19.642 63.3851C18.574 61.7205 18.0529 59.9259 18.079 57.9752C18.079 57.481 18.105 57.1429 18.1311 56.9608C18.1571 56.7527 18.2092 56.4926 18.2874 56.1545C18.574 54.802 19.121 53.5535 19.9286 52.3831C20.7882 51.1347 21.8824 50.0423 23.237 49.1579C24.6697 48.1956 26.2328 47.5454 27.9521 47.2072C29.3067 46.9211 31 46.7911 33.058 46.7911H35.4807L35.9235 50.0683H32.1202C29.5412 50.0683 27.4832 50.5885 25.9723 51.6549C24.5916 52.6172 23.6798 54.0217 23.2891 55.8164C23.1849 56.3626 23.1067 56.9088 23.1067 57.455C23.1067 58.1832 23.1849 58.8855 23.3412 59.5357C23.5496 60.1339 23.8101 60.7322 24.1227 61.3304ZM32.6151 61.3304L35.0118 50.4844H30.0622L27.6655 61.3304H32.6151ZM41.863 56.3106C41.837 57.7151 42.2538 58.9115 43.0874 59.8999C44.0252 61.0183 45.3017 61.5645 46.9429 61.5645C48.9487 61.5645 50.7723 60.7582 52.3614 59.1196C53.716 57.7411 54.5756 56.2065 54.9664 54.5159C55.0445 54.1778 55.0706 53.8657 55.0966 53.5535C55.1227 52.5132 54.7059 51.7069 53.8983 51.1347C52.9605 50.4844 51.4756 50.1463 49.4697 50.1463C47.3597 50.1463 45.6664 50.5104 44.442 51.2127C43.374 51.8369 42.6445 52.6952 42.2538 53.8397H41.1597L41.9151 50.3804H38.1899L35.7672 61.3044H39.4924L40.5866 56.2845H41.863V56.3106ZM51.0588 54.6459C50.8244 55.6603 50.3555 56.6487 49.6261 57.585C48.8966 58.5214 48.1933 58.9895 47.516 58.9895C46.9689 58.9895 46.5261 58.6774 46.2134 58.0532C45.9008 57.429 45.7445 56.6747 45.7706 55.7904C45.7706 55.4002 45.8227 55.0101 45.9008 54.6459C46.0571 53.9177 46.3698 53.4235 46.8387 53.1374C47.3076 52.8513 47.9849 52.7212 48.9227 52.7212C49.7303 52.7212 50.3034 52.8253 50.642 53.0334C50.9807 53.2414 51.163 53.5796 51.163 54.0477C51.137 54.2298 51.1109 54.4379 51.0588 54.6459ZM60.5933 53.8397C60.9059 53.8397 61.505 53.9437 62.3908 54.1258C63.7714 54.4379 64.8916 54.828 65.7513 55.3222C66.9496 56.0244 67.5487 56.8828 67.5227 57.8971C67.5227 58.1572 67.4966 58.3653 67.4706 58.4953C67.2622 59.3797 66.7412 60.0559 65.8815 60.5241C64.9437 61.0443 63.6672 61.3044 62.0261 61.3044H55.1748L57.5975 50.3804H67.7572L68.0698 52.8513H60.7496L60.5933 53.8397ZM59.4731 58.8595H61.6092C62.0782 58.8595 62.4429 58.8335 62.6773 58.7815C63.0941 58.6774 63.3286 58.4954 63.3807 58.2092C63.3807 58.1572 63.4067 58.0792 63.4067 58.0012C63.4067 57.403 62.8597 56.9348 61.7395 56.6227C61.3748 56.5186 60.8017 56.4146 60.0462 56.3106L59.4731 58.8595ZM80.0269 52.8513H74.3219L73.9571 54.4639H79.1412L77.7345 56.9348H73.4101L72.9672 58.8595H79.063L77.6563 61.3304H68.695L71.1177 50.4064H79.6882L80.0269 52.8513ZM96.1521 65.0758H91.2025L92.2185 60.4461H86.8C86.7219 60.8362 86.6698 61.2003 86.6698 61.5385C86.6698 62.1107 86.7479 62.7089 86.9303 63.3071C87.1126 63.9053 87.3731 64.5035 87.6857 65.0758L83.205 67.1305C82.137 65.4659 81.616 63.6712 81.642 61.7205C81.642 61.2263 81.6681 60.8882 81.6941 60.7062C81.7202 60.4981 81.7723 60.238 81.8504 59.8999C82.137 58.5474 82.684 57.2989 83.4916 56.1285C84.3513 54.88 85.4454 53.7876 86.8 52.9033C88.2328 51.941 89.7958 51.2907 91.5151 50.9526C92.8698 50.6665 94.563 50.5364 96.621 50.5364H99.0437L99.4866 53.8136H95.605C93.2866 53.8136 91.463 54.2298 90.1605 55.0361C89.4832 55.4522 88.7538 56.1805 88.0244 57.2209H92.9479L93.5992 54.2818H98.5487L96.1521 65.0758ZM100.19 66.9484L101.987 58.8075H105.713L104.462 64.4775H106.598C107.067 64.4775 107.432 64.4515 107.666 64.3995C108.083 64.2955 108.318 64.1134 108.37 63.8273C108.37 63.8013 108.396 63.7493 108.396 63.6712C108.396 63.2291 108.031 62.7089 107.25 62.1887C106.703 61.7986 106.077 61.4864 105.374 61.2003L106.676 60.5241C107.224 60.264 107.64 60.0299 107.927 59.8739C108.448 59.5357 108.761 59.2496 108.813 59.0155C108.865 58.7815 108.787 58.6514 108.552 58.5994C108.344 58.5474 107.875 58.5214 107.171 58.5214H101.362L102.769 56.0505H109.49C110.818 56.0505 111.782 56.2585 112.408 56.6747C112.903 57.0128 113.163 57.481 113.137 58.1052C113.137 58.2873 113.111 58.4433 113.085 58.5994C112.981 59.0936 112.694 59.5617 112.225 59.9779C111.861 60.29 111.34 60.6541 110.662 61.0703C111.235 61.4344 111.678 61.8506 112.017 62.3187C112.355 62.7869 112.512 63.2811 112.512 63.8273C112.512 63.9834 112.486 64.1654 112.46 64.3475C112.277 65.1018 111.834 65.7 111.105 66.1421C110.167 66.7144 108.813 67.0005 107.041 67.0005H100.19V66.9484ZM125.563 58.4693H121.603L119.728 66.9224H116.003L117.878 58.4693H113.918L115.325 55.9984H125.224L125.563 58.4693ZM125.25 60.1079C125.146 60.6021 125.094 61.0703 125.094 61.5385C125.068 63.047 125.433 64.3215 126.214 65.3619C127.126 66.5843 128.429 67.1825 130.148 67.1825C132.154 67.1825 133.977 66.3762 135.566 64.7376C136.921 63.3591 137.781 61.8246 138.171 60.1339C138.25 59.7958 138.276 59.4837 138.302 59.1716C138.328 58.1312 137.911 57.3249 137.103 56.7527C136.166 56.1025 134.681 55.7644 132.675 55.7644C130.356 55.7644 128.559 56.1805 127.282 57.0388C126.214 57.7931 125.537 58.8075 125.25 60.1079ZM134.264 60.264C134.029 61.2784 133.561 62.2667 132.831 63.2031C132.102 64.1394 131.398 64.6076 130.721 64.6076C130.174 64.6076 129.731 64.2955 129.418 63.6712C129.106 63.047 128.95 62.2927 128.976 61.4084C128.976 61.0183 129.028 60.6281 129.106 60.264C129.262 59.5357 129.575 59.0415 130.044 58.7554C130.513 58.4693 131.19 58.3393 132.128 58.3393C132.935 58.3393 133.508 58.4433 133.847 58.6514C134.186 58.8595 134.368 59.1976 134.368 59.6658C134.342 59.8478 134.316 60.0559 134.264 60.264Z" fill="white"/>
<path d="M55.7479 68.405H135.592" stroke="white" stroke-miterlimit="10"/>
<path d="M87.9462 35.7371C86.5916 34.9828 86.4353 34.4886 85.2369 32.746C87.2428 32.928 87.7638 32.798 89.2487 33.6043C90.7336 34.4106 91.2025 35.3469 91.9579 36.5954C90.4731 36.6214 89.3008 36.5173 87.9462 35.7371Z" fill="white" stroke="white" stroke-miterlimit="10"/>
</svg>
